<?xml version="1.0" encoding="UTF-8"?>
<svg width="17px" height="24px" viewBox="0 0 17 24" version="1.1" xmlns="http://www.w3.org/2000/svg" xmlns:xlink="http://www.w3.org/1999/xlink">
    <!-- Generator: Sketch 46.2 (44496) - http://www.bohemiancoding.com/sketch -->
    <title>3D_tunein_high Copy 3</title>
    <desc>Created with Sketch.</desc>
    <defs></defs>
    <g id="Symbols" stroke="none" stroke-width="1" fill="none" fill-rule="evenodd">
        <g id="header" fill-rule="nonzero" fill="#FFFFFF">
            <g id="logo">
                <g id="3D_tunein_high-Copy-3">
                    <path d="M0.02625,10.185 L1.63875,10.185 L1.63875,8.77875 C1.63875,8.77875 1.65,8.33625 1.72125,8.04375 C1.7925,7.7475 1.8825,7.47375 2.08125,7.1175 C2.28,6.7575 2.6775,6.2475 3.08625,5.94 C3.495,5.6325 4.22625,5.1 5.65125,5.0625 C7.08,5.025 8.40375,6.21375 8.5875,6.495 C8.8575,6.85875 9.585,7.7625 9.51,9.22125 C9.51,10.13625 9.08625,10.78125 8.80125,11.205 C8.65875,11.3475 8.58375,11.46 8.475,11.5425 C8.36625,11.625 7.74,12.13125 7.58625,12.40125 C7.4325,12.67125 7.28625,12.9825 7.28625,13.21875 C7.28625,13.455 7.40625,14.05875 7.72875,14.475 C8.0475,14.89125 8.20875,15.3975 8.175,15.71625 C8.14125,16.035 8.05875,16.55625 7.7775,16.90125 C7.49625,17.24625 6.99,17.79 6.27375,17.90625 C5.5575,18.0225 5.5875,17.9625 5.295,17.9325 C4.99875,17.89875 4.65,17.7675 4.39875,17.61375 C4.1475,17.46 3.78375,17.1675 3.70125,17.0625 C3.61875,16.96125 3.49125,16.76625 3.49125,16.76625 L2.115,17.61 C2.115,17.61 2.41125,18.07125 2.6925,18.32625 C2.97375,18.58125 3.37125,18.8775 3.57,18.9975 C3.76875,19.1175 4.44,19.44 4.9725,19.515 C5.505,19.59 6.25875,19.63125 6.88125,19.425 C7.50375,19.21875 8.5725,18.78 9.1425,17.775 C9.7125,16.77 9.8775,16.23375 9.73875,15.04125 C9.64875,14.51625 9.375,14.0475 9.375,14.0475 L8.925,13.29375 C8.925,13.29375 9.675,12.69375 10.04625,12.2325 C10.4175,11.77125 11.10375,10.72875 11.12625,9.0075 C11.1525,7.28625 10.2225,6.0075 10.09125,5.80125 C9.95625,5.595 8.99625,4.4175 7.8375,3.945 C6.67875,3.4725 5.8275,3.40125 4.97625,3.48375 C4.125,3.56625 2.86875,4.09125 2.505,4.36875 C2.14125,4.6425 1.26375,5.355 0.855,6.01875 C0.44625,6.68625 0.22125,7.2975 0.14625,7.76625 C0.07125,8.235 0.045,8.82375 0.045,8.82375 L0.02625,10.185 Z" id="Shape"></path>
                    <path d="M3.84,10.5375 C3.84,10.5375 3.915,10.785 4.15125,10.755 C4.3875,10.725 4.4475,10.59 4.425,10.3725 C4.4025,10.155 4.2975,9.675 4.38,9.3 C4.4475,8.925 4.76625,8.26125 5.6025,8.24625 C6.43875,8.23125 6.945,9 6.94125,9.285 C6.93375,9.57375 7.00125,9.70125 6.82875,10.0875 C6.65625,10.47375 6.18375,10.88625 6.00375,11.12625 C5.82375,11.36625 5.67,11.57625 5.62125,11.715 C5.5725,11.85375 5.4675,12.10875 5.56125,12.525 C5.655,12.94125 5.985,13.75125 5.99625,13.87125 C6.0075,13.99125 6.09,14.355 5.81625,14.5575 C5.5425,14.76 5.3925,14.7975 5.17125,14.79375 C4.95,14.79 4.72125,14.72625 4.57125,14.62875 C4.425,14.53125 4.23375,14.34375 4.21125,14.13 C4.18875,13.91625 4.2975,13.32 4.34625,13.18125 C4.45125,12.885 4.3575,12.75375 4.3575,12.75375 C4.3575,12.75375 4.06875,12.3975 3.81,12.8175 C3.72375,12.96 3.6375,13.47 3.6375,13.47 L3.59625,13.815 C3.59625,13.815 3.58125,14.13375 3.63,14.32125 C3.67875,14.50875 3.7575,14.67 3.88875,14.8275 C4.02,14.985 4.275,15.21375 4.57125,15.30375 C4.8675,15.39375 5.32125,15.465 5.7375,15.3 C6.1575,15.135 6.5775,14.83125 6.63,14.1975 C6.6825,13.56375 6.3,12.92625 6.255,12.765 C6.24375,12.71625 6.1125,12.4725 6.135,12.18375 C6.16125,11.89125 6.3975,11.59125 6.6225,11.34375 C6.8475,11.0925 7.0125,10.8825 7.15125,10.71375 C7.29,10.545 7.335,10.515 7.4475,10.1925 C7.55625,9.87 7.58625,9.6 7.55625,9.31125 C7.52625,9.0225 7.485,8.7825 7.23375,8.43375 C6.9825,8.085 6.6675,7.9425 6.56625,7.87875 C6.465,7.81875 6.01875,7.6275 5.595,7.6275 C5.17125,7.63125 4.67625,7.82625 4.2825,8.175 C3.88875,8.52375 3.79125,9.10125 3.79125,9.10125 C3.79125,9.10125 3.73125,9.67125 3.7425,9.80625 C3.75375,9.945 3.84,10.5375 3.84,10.5375 Z" id="Shape"></path>
                    <path d="M12.94125,8.49375 C12.94125,8.49375 12.7125,8.43 12.72,8.23125 C12.73125,8.0325 12.7875,8.04 12.825,7.72875 C12.86625,7.4175 12.87375,7.0875 12.87375,7.0875 C12.87375,7.0875 12.8775,6.91125 12.85875,6.705 C12.84,6.49875 12.76125,6.10875 12.71625,5.97 C12.67125,5.83125 12.57,5.56125 12.57,5.56125 C12.57,5.56125 12.45375,5.29125 12.375,5.16375 C12.3,5.03625 12.015,4.53375 11.56125,4.1475 C11.1075,3.765 10.96125,3.70125 10.72125,3.58125 C10.48125,3.46125 10.1175,3.34125 9.9825,3.29625 C9.8475,3.25125 9.81,3.1275 9.80625,3.09 C9.8025,3.0525 9.78,2.8575 9.95625,2.7675 C10.08375,2.7 10.155,2.745 10.155,2.745 C10.155,2.745 10.3875,2.8125 10.56375,2.88 C10.74,2.9475 10.965,3.04125 11.34375,3.2775 C11.72625,3.51375 11.91375,3.68625 12.0975,3.87 C12.28125,4.05375 12.72375,4.51875 13.05375,5.25375 C13.38375,5.985 13.43625,6.66375 13.44375,6.83625 C13.455,7.00875 13.44375,7.56375 13.37625,7.87125 C13.30875,8.17875 13.27875,8.28 13.27875,8.28 C13.27875,8.28 13.27125,8.39625 13.15875,8.4525 C13.08375,8.535 12.94125,8.49375 12.94125,8.49375 Z" id="Shape"></path>
                    <path d="M15.6,9.3225 C15.6,9.3225 15.375,9.24 15.39,9.03375 C15.40125,8.8275 15.48,8.86125 15.555,8.3175 C15.63,7.77375 15.66375,7.41 15.65625,7.095 C15.64875,6.78 15.61875,6.1725 15.4575,5.5125 C15.29625,4.8525 14.9775,4.17 14.87625,3.975 C14.775,3.78375 14.3325,3.07125 14.14125,2.85375 C13.95,2.63625 13.6425,2.2725 13.245,1.93875 C12.8475,1.605 12.43125,1.32375 12.09375,1.15125 C11.75625,0.97875 11.18625,0.7275 11.01375,0.6825 C10.84125,0.6375 10.7625,0.62625 10.6425,0.5625 C10.5225,0.49875 10.4475,0.38625 10.5225,0.19125 C10.58625,0.01875 10.77375,0.01875 10.77375,0.01875 C10.77375,0.01875 10.99125,0.06375 11.34375,0.19125 C11.69625,0.31875 12.285,0.555 12.81,0.9 C13.335,1.245 13.98,1.74375 14.4375,2.28375 C14.89125,2.82 15.3075,3.45 15.59625,4.12125 C15.885,4.7925 16.1925,5.65125 16.24875,6.84 C16.2675,7.2375 16.2375,7.81125 16.14,8.29875 C16.0425,8.78625 15.9825,9.03375 15.96,9.12375 C15.9,9.345 15.6,9.3225 15.6,9.3225 Z" id="Shape"></path>
                    <polygon id="Shape" points="0.88125 21.54375 0.88125 23.91 1.7025 23.91 1.7025 21.555 2.4375 21.555 2.4375 20.85 0.135 20.85 0.135 21.54375"></polygon>
                    <path d="M2.835,21.555 L3.6525,21.555 L3.6525,22.935 C3.6525,22.935 3.63375,23.295 3.88875,23.31375 C4.14,23.33625 4.2,23.22 4.24875,23.12625 C4.2975,23.0325 4.3125,22.93125 4.3125,22.82625 C4.3125,22.725 4.32,21.55875 4.32,21.55875 L5.14875,21.55875 L5.14875,23.9175 L4.53,23.9175 L4.42875,23.62875 L4.3875,23.62125 C4.3875,23.62125 4.15875,23.98125 3.67125,23.95875 C3.18375,23.93625 3.06375,23.7525 2.98125,23.65125 C2.895,23.55 2.83875,23.3775 2.83875,23.19 C2.835,23.00625 2.835,21.555 2.835,21.555 Z" id="Shape"></path>
                    <polygon id="Shape" points="11.02125 22.43625 11.02125 23.1225 12.21 23.1225 12.21 22.44"></polygon>
                    <polygon id="Shape" points="12.63 23.925 12.63 20.86125 13.4625 20.86125 13.4625 23.92125"></polygon>
                    <path d="M14.07,21.56625 L14.07,23.92125 L14.87625,23.92125 L14.87625,22.77 C14.87625,22.77 14.85375,22.37625 15.05625,22.21875 C15.21375,22.095 15.47625,22.13625 15.52875,22.33125 C15.55125,22.4025 15.56625,22.45125 15.56625,22.5525 C15.56625,22.65375 15.555,23.92125 15.555,23.92125 L16.3725,23.92125 L16.3725,22.335 C16.3725,22.335 16.3725,21.9525 16.155,21.735 C15.9375,21.5175 15.70125,21.495 15.375,21.54375 C15.06,21.5925 14.91,21.72375 14.84625,21.8475 C14.835,21.87375 14.79,21.85875 14.79,21.85875 L14.6925,21.57 L14.07,21.57 L14.07,21.56625 Z" id="Shape"></path>
                    <path d="M5.71125,21.56625 L5.71125,23.92125 L6.5175,23.92125 L6.5175,22.77 C6.5175,22.77 6.495,22.37625 6.6975,22.21875 C6.855,22.095 7.1175,22.13625 7.17,22.33125 C7.1925,22.4025 7.2075,22.45125 7.2075,22.5525 C7.2075,22.65375 7.19625,23.92125 7.19625,23.92125 L8.01375,23.92125 L8.01375,22.335 C8.01375,22.335 8.01375,21.9525 7.79625,21.735 C7.57875,21.5175 7.3425,21.495 7.01625,21.54375 C6.70125,21.5925 6.55125,21.72375 6.4875,21.8475 C6.47625,21.87375 6.43125,21.85875 6.43125,21.85875 L6.33375,21.57 L5.71125,21.57 L5.71125,21.56625 Z" id="Shape"></path>
                    <path d="M16.5,12.07875 C15.9375,10.35 13.89,10.32375 13.89,10.32375 L11.47125,10.32375 L9.795,18.2625 L12.12375,18.2625 C12.12375,18.2625 12.84,18.3375 13.77375,18.045 C14.7075,17.74875 15.07875,17.355 15.6825,16.74 C16.2825,16.125 17.06625,13.8075 16.5,12.07875 Z M14.96625,13.4625 C14.89125,14.205 15.00375,14.74875 14.325,15.8325 C14.13375,16.14 13.68375,16.5375 13.42875,16.63875 C13.17375,16.74 13.005,16.80375 12.66,16.845 C12.315,16.8825 11.72625,16.87125 11.72625,16.87125 L12.82875,11.71125 C12.82875,11.71125 13.96875,11.6475 14.31375,11.92875 C14.65875,12.20625 15.04125,12.72 14.96625,13.4625 Z" id="Shape"></path>
                    <path d="M9.86625,23.385 C9.75,23.3925 9.615,23.38125 9.46125,23.295 C9.3075,23.20875 9.29625,22.9575 9.29625,22.9575 L10.75125,22.95375 C10.75125,22.95375 10.75125,22.51125 10.74,22.37625 C10.72875,22.2375 10.68375,22.07625 10.60875,21.9675 C10.27875,21.49875 9.70125,21.5175 9.70125,21.5175 C9.70125,21.5175 9.5325,21.5025 9.2775,21.55125 C9.11625,21.58125 8.91375,21.70875 8.91375,21.70875 C8.91375,21.70875 8.6175,21.88875 8.52,22.32 C8.39625,22.875 8.50875,23.235 8.68875,23.53125 C8.86875,23.8275 9.36375,23.955 9.6075,23.95875 C9.85125,23.96625 9.88125,23.9775 10.1625,23.9325 C10.44,23.8875 10.605,23.79 10.605,23.79 L10.605,23.205 C10.605,23.205 10.37625,23.3025 10.245,23.34 C10.11,23.37375 9.9825,23.38125 9.86625,23.385 Z M9.6525,22.0725 C9.915,22.08 9.98625,22.24875 10.0125,22.4475 L9.31125,22.45125 C9.31125,22.4475 9.3075,22.07625 9.6525,22.0725 Z" id="Shape"></path>
                </g>
            </g>
        </g>
    </g>
</svg>