<?xml version="1.0" encoding="UTF-8"?>
<svg width="833px" height="102px" viewBox="0 0 833 102" version="1.1" xmlns="http://www.w3.org/2000/svg" xmlns:xlink="http://www.w3.org/1999/xlink">
    <!-- Generator: Sketch 46.2 (44496) - http://www.bohemiancoding.com/sketch -->
    <title>royal-brompton-harefield-logo-on-dark</title>
    <desc>Created with Sketch.</desc>
    <defs></defs>
    <g id="Page-1" stroke="none" stroke-width="1" fill="none" fill-rule="evenodd">
        <g id="royal-brompton-harefield-logo-on-dark">
            <g id="RoyalBromptonLogo-large">
                <path d="M5.093,35.394 L9.42,35.394 C14.256,35.394 17.106,33.257 17.106,29.845 C17.106,26.637 14.664,24.602 9.981,24.602 L5.093,24.602 L5.093,35.394 Z M0.003,20.124 L8.708,20.124 C15.732,20.124 22.503,21.243 22.503,29.742 C22.503,34.072 19.296,37.125 15.173,37.839 L15.173,37.94 C16.751,38.551 17.514,39.314 18.633,41.505 L25.353,55.656 L19.551,55.656 L14.103,43.336 C12.525,39.873 10.845,39.873 8.148,39.873 L5.093,39.873 L5.093,55.656 L0.003,55.656 L0.003,20.124 L0.003,20.124 Z" id="Fill-1" fill="#E1E8F0"></path>
                <path d="M41.586,52.395 C47.185,52.395 49.679,47.306 49.679,42.676 C49.679,37.736 46.675,32.952 41.586,32.952 C36.443,32.952 33.441,37.736 33.441,42.676 C33.441,47.306 35.935,52.395 41.586,52.395 Z M41.586,29.082 C49.475,29.082 54.771,34.784 54.771,42.676 C54.771,50.105 49.373,56.267 41.586,56.267 C33.745,56.267 28.352,50.105 28.352,42.676 C28.352,34.784 33.645,29.082 41.586,29.082 L41.586,29.082 Z" id="Fill-2" fill="#E1E8F0"></path>
                <path d="M58.432,62.679 C59.046,62.883 59.857,63.087 60.674,63.087 C64.95,63.087 66.375,57.182 66.375,56.671 C66.375,56.113 65.763,54.792 65.459,53.924 L56.652,29.692 L61.895,29.692 L68.868,51.174 L68.97,51.174 L76.098,29.692 L80.933,29.692 L71.362,56.215 C69.58,61.203 67.698,66.956 61.387,66.956 C59.857,66.956 58.995,66.752 58.126,66.599 L58.432,62.679" id="Fill-3" fill="#E1E8F0"></path>
                <path d="M100.12,43.286 C99.102,43.286 98.084,43.185 97.067,43.185 C94.471,43.185 88.055,43.589 88.055,48.172 C88.055,50.92 90.702,52.395 92.891,52.395 C97.626,52.395 100.12,49.445 100.12,45.577 L100.12,43.286 Z M85.918,31.526 C88.31,30.102 91.16,29.082 94.471,29.082 C101.901,29.082 104.904,32.749 104.904,39.823 L104.904,50.563 C104.904,53.515 105.006,54.891 105.108,55.656 L100.629,55.656 L100.629,52.294 L100.527,52.294 C99.407,53.872 96.86,56.267 92.483,56.267 C86.885,56.267 82.966,53.821 82.966,48.172 C82.966,41.657 90.091,39.619 95.028,39.619 C96.912,39.619 98.234,39.619 100.12,39.721 C100.12,35.242 98.492,32.952 93.704,32.952 C91.008,32.952 88.106,33.971 86.172,35.597 L85.918,31.526 L85.918,31.526 Z" id="Fill-4" fill="#E1E8F0"></path>
                <polygon id="Fill-5" fill="#E1E8F0" points="112.799 55.656 117.586 55.656 117.586 17.477 112.799 17.477"></polygon>
                <path d="M145.729,51.482 L149.549,51.482 C154.129,51.482 158.252,50.514 158.252,45.729 C158.252,40.23 153.417,39.466 149.037,39.466 L145.729,39.466 L145.729,51.482 Z M145.729,35.293 L148.529,35.293 C153.468,35.293 157.64,34.835 157.64,29.59 C157.64,25.365 154.027,24.297 151.076,24.297 L145.729,24.297 L145.729,35.293 Z M140.64,20.124 L150.258,20.124 C157.64,20.124 162.73,22.516 162.73,29.082 C162.73,33.971 159.88,36.413 155.401,37.533 L155.401,37.635 C160.236,38.042 163.649,41.199 163.649,46.186 C163.649,53.821 157.335,55.656 150.105,55.656 L140.64,55.656 L140.64,20.124 L140.64,20.124 Z" id="Fill-6" fill="#E1E8F0"></path>
                <path d="M170.949,29.692 L175.431,29.692 L175.431,33.715 L175.533,33.715 C176.806,31.015 179.554,29.082 182.303,29.082 C183.73,29.082 184.439,29.232 185.46,29.436 L185.46,33.715 C184.595,33.358 183.628,33.257 182.811,33.257 C178.536,33.257 175.736,37.329 175.736,43.843 L175.736,55.656 L170.949,55.656 L170.949,29.692" id="Fill-7" fill="#E1E8F0"></path>
                <path d="M201.418,52.395 C207.019,52.395 209.513,47.306 209.513,42.676 C209.513,37.736 206.51,32.952 201.418,32.952 C196.277,32.952 193.275,37.736 193.275,42.676 C193.275,47.306 195.769,52.395 201.418,52.395 Z M201.418,29.082 C209.309,29.082 214.603,34.784 214.603,42.676 C214.603,50.105 209.207,56.267 201.418,56.267 C193.579,56.267 188.184,50.105 188.184,42.676 C188.184,34.784 193.478,29.082 201.418,29.082 L201.418,29.082 Z" id="Fill-8" fill="#E1E8F0"></path>
                <path d="M220.709,29.692 L225.19,29.692 L225.19,33.461 L225.293,33.461 C227.122,30.455 229.72,29.082 233.537,29.082 C236.543,29.082 239.545,30.608 240.919,34.123 C242.701,30.408 246.62,29.082 248.96,29.082 C255.58,29.082 257.972,33.358 257.972,39.009 L257.972,55.656 L253.188,55.656 L253.188,40.181 C253.188,36.971 252.423,32.952 248.553,32.952 C243.668,32.952 241.734,37.736 241.734,42.571 L241.734,55.656 L236.947,55.656 L236.947,40.181 C236.947,36.971 236.184,32.952 232.315,32.952 C227.431,32.952 225.493,37.736 225.493,42.571 L225.493,55.656 L220.709,55.656 L220.709,29.692" id="Fill-9" fill="#E1E8F0"></path>
                <path d="M278.105,32.952 C272.915,32.952 270.421,37.889 270.421,42.725 C270.421,47.053 272.659,52.395 278.056,52.395 C283.198,52.395 285.332,46.645 285.23,42.571 C285.332,37.889 283.3,32.952 278.105,32.952 Z M265.633,29.692 L270.217,29.692 L270.217,33.358 L270.319,33.358 C271.591,31.425 274.543,29.082 279.123,29.082 C286.658,29.082 290.322,35.242 290.322,42.215 C290.322,49.343 287.015,56.267 279.175,56.267 C274.595,56.267 271.999,54.486 270.521,52.092 L270.421,52.092 L270.421,66.345 L265.633,66.345 L265.633,29.692 L265.633,29.692 Z" id="Fill-10" fill="#E1E8F0"></path>
                <path d="M310.439,33.562 L303.567,33.562 L303.567,47.765 C303.567,50.767 305.401,52.395 307.589,52.395 C309.065,52.395 310.134,51.937 310.846,51.482 L310.846,55.555 C309.777,55.86 308.302,56.267 306.773,56.267 C301.835,56.267 298.782,53.924 298.782,48.731 L298.782,33.562 L292.926,33.562 L292.926,29.692 L298.782,29.692 L298.782,23.686 L303.567,22.16 L303.567,29.692 L310.439,29.692 L310.439,33.562" id="Fill-11" fill="#E1E8F0"></path>
                <path d="M326.984,52.395 C332.583,52.395 335.077,47.306 335.077,42.676 C335.077,37.736 332.074,32.952 326.984,32.952 C321.842,32.952 318.839,37.736 318.839,42.676 C318.839,47.306 321.332,52.395 326.984,52.395 Z M326.984,29.082 C334.874,29.082 340.168,34.784 340.168,42.676 C340.168,50.105 334.772,56.267 326.984,56.267 C319.145,56.267 313.747,50.105 313.747,42.676 C313.747,34.784 319.042,29.082 326.984,29.082 L326.984,29.082 Z" id="Fill-12" fill="#E1E8F0"></path>
                <path d="M346.301,29.692 L350.933,29.692 L350.933,33.817 L351.035,33.817 C352.459,30.862 355.921,29.082 359.537,29.082 C366.254,29.082 369.258,33.257 369.258,40.23 L369.258,55.656 L364.474,55.656 L364.474,42.215 C364.474,36.158 363.15,33.205 358.974,32.952 C353.527,32.952 351.085,37.329 351.085,43.639 L351.085,55.656 L346.301,55.656 L346.301,29.692" id="Fill-13" fill="#E1E8F0"></path>
                <path d="M403.917,33.971 C406.052,32.952 409.261,30.761 409.261,27.758 C409.261,24.5 407.479,23.381 405.034,23.381 C402.692,23.381 400.759,24.908 400.759,27.961 C400.759,30.356 402.387,32.288 403.917,33.971 Z M404.067,52.395 C407.377,52.395 409.515,50.258 410.635,48.986 L402.082,38.957 C399.385,40.789 397.095,42.469 397.095,45.983 C397.095,49.902 400.403,52.395 404.067,52.395 Z M420.459,36.465 C420.002,42.215 418.424,45.525 416.386,48.63 L422.599,55.656 L416.233,55.656 L413.331,52.192 C410.787,55.095 407.683,56.267 403.153,56.267 C396.128,56.267 391.698,52.294 391.698,46.34 C391.698,40.941 394.854,37.889 399.639,35.955 C397.756,33.665 395.972,31.272 395.972,27.86 C395.972,22.16 400.148,19.513 405.238,19.513 C409.869,19.513 414.045,21.956 414.045,27.555 C414.045,32.084 410.023,35.141 406.257,36.82 L413.485,45.067 C414.859,42.879 415.419,40.535 415.676,36.465 L420.459,36.465 L420.459,36.465 Z" id="Fill-14" fill="#E1E8F0"></path>
                <polyline id="Fill-15" fill="#E1E8F0" points="443.152 20.124 448.242 20.124 448.242 34.987 465.244 34.987 465.244 20.124 470.334 20.124 470.334 55.656 465.244 55.656 465.244 39.466 448.242 39.466 448.242 55.656 443.152 55.656 443.152 20.124"></polyline>
                <path d="M494.145,43.286 C493.128,43.286 492.108,43.185 491.091,43.185 C488.496,43.185 482.081,43.589 482.081,48.172 C482.081,50.92 484.729,52.395 486.918,52.395 C491.651,52.395 494.145,49.445 494.145,45.577 L494.145,43.286 Z M479.941,31.526 C482.335,30.102 485.186,29.082 488.496,29.082 C495.926,29.082 498.93,32.749 498.93,39.823 L498.93,50.563 C498.93,53.515 499.033,54.891 499.134,55.656 L494.654,55.656 L494.654,52.294 L494.552,52.294 C493.434,53.872 490.887,56.267 486.51,56.267 C480.91,56.267 476.989,53.821 476.989,48.172 C476.989,41.657 484.117,39.619 489.055,39.619 C490.938,39.619 492.263,39.619 494.145,39.721 C494.145,35.242 492.516,32.952 487.73,32.952 C485.034,32.952 482.131,33.971 480.198,35.597 L479.941,31.526 L479.941,31.526 Z" id="Fill-16" fill="#E1E8F0"></path>
                <path d="M506.51,29.692 L510.988,29.692 L510.988,33.715 L511.09,33.715 C512.362,31.015 515.113,29.082 517.862,29.082 C519.288,29.082 519.999,29.232 521.019,29.436 L521.019,33.715 C520.152,33.358 519.184,33.257 518.37,33.257 C514.095,33.257 511.294,37.329 511.294,43.843 L511.294,55.656 L506.51,55.656 L506.51,29.692" id="Fill-17" fill="#E1E8F0"></path>
                <path d="M542.425,40.181 C542.425,36.209 540.08,32.952 535.958,32.952 C531.276,32.952 529.341,36.82 528.984,40.181 L542.425,40.181 Z M545.527,54.588 C543.696,55.248 541.609,56.267 537.332,56.267 C528.12,56.267 523.894,50.666 523.894,42.215 C523.894,34.529 528.729,29.082 536.06,29.082 C544.716,29.082 547.513,35.394 547.513,43.741 L528.984,43.741 C528.984,48.884 533.006,52.395 537.536,52.395 C540.691,52.395 544.357,50.767 545.527,49.8 L545.527,54.588 L545.527,54.588 Z" id="Fill-18" fill="#E1E8F0"></path>
                <path d="M556.579,33.562 L550.472,33.562 L550.472,29.692 L556.579,29.692 L556.579,27.3 C556.579,20.989 558.209,16.864 565.284,16.864 C566.508,16.864 567.522,17.019 568.49,17.172 L568.289,21.04 C567.727,20.836 566.811,20.732 565.998,20.732 C561.873,20.732 561.366,23.381 561.366,26.892 L561.366,29.692 L568.236,29.692 L568.236,33.562 L561.366,33.562 L561.366,55.656 L556.579,55.656 L556.579,33.562" id="Fill-19" fill="#E1E8F0"></path>
                <path d="M573.461,55.653 L578.244,55.653 L578.244,29.692 L573.461,29.692 L573.461,55.653 Z M573.155,23.89 L578.55,23.89 L578.55,18.494 L573.155,18.494 L573.155,23.89 Z" id="Fill-20" fill="#E1E8F0"></path>
                <path d="M603.202,40.181 C603.202,36.209 600.86,32.952 596.736,32.952 C592.054,32.952 590.118,36.82 589.763,40.181 L603.202,40.181 Z M606.306,54.588 C604.475,55.248 602.387,56.267 598.11,56.267 C588.897,56.267 584.671,50.666 584.671,42.215 C584.671,34.529 589.507,29.082 596.838,29.082 C605.492,29.082 608.291,35.394 608.291,43.741 L589.763,43.741 C589.763,48.884 593.784,52.395 598.313,52.395 C601.47,52.395 605.135,50.767 606.306,49.8 L606.306,54.588 L606.306,54.588 Z" id="Fill-21" fill="#E1E8F0"></path>
                <polygon id="Fill-22" fill="#E1E8F0" points="614.842 55.656 619.628 55.656 619.628 17.477 614.842 17.477"></polygon>
                <path d="M638.471,52.395 C643.865,52.395 646.107,47.053 646.107,42.725 C646.107,37.889 643.612,32.952 638.418,32.952 C633.228,32.952 631.191,37.839 631.293,42.571 C631.191,46.645 633.329,52.395 638.471,52.395 Z M646.311,51.989 L646.209,51.989 C644.935,53.924 641.981,56.267 637.35,56.267 C629.511,56.267 626.202,49.292 626.202,42.215 C626.202,35.242 629.867,29.082 637.404,29.082 C641.932,29.082 644.529,30.862 646.005,33.257 L646.107,33.257 L646.107,17.475 L650.89,17.475 L650.89,55.656 L646.311,55.656 L646.311,51.989 L646.311,51.989 Z" id="Fill-23" fill="#E1E8F0"></path>
                <g id="Group-26" transform="translate(681.000000, 0.000000)" fill="#006FAB">
                    <polygon id="Fill-25" points="0.484 61.374 151.227 61.374 151.227 0.389 0.484 0.389"></polygon>
                </g>
                <polyline id="Fill-27" fill="#FFFFFE" points="696.224 6.253 712.615 6.253 722.677 40.306 722.816 40.306 729.712 6.253 742.095 6.253 731.683 55.363 715.361 55.363 705.088 21.378 704.946 21.378 698.122 55.363 685.739 55.363 696.224 6.253"></polyline>
                <polyline id="Fill-28" fill="#FFFFFE" points="746.94 6.253 760.101 6.253 756.229 25.038 771.78 25.038 775.649 6.253 788.805 6.253 778.604 55.363 765.445 55.363 769.81 34.325 754.261 34.325 749.896 55.363 736.739 55.363 746.94 6.253"></polyline>
                <path d="M823.42,17.37 C820.885,16.172 817.44,15.118 812.585,15.118 C807.377,15.118 803.156,15.892 803.156,19.831 C803.156,26.796 822.225,24.192 822.225,39.11 C822.225,52.689 809.63,56.205 798.231,56.205 C793.166,56.205 787.324,55.012 783.032,53.673 L786.129,43.683 C788.733,45.373 793.938,46.497 798.231,46.497 C802.312,46.497 808.713,45.722 808.713,40.657 C808.713,32.776 789.648,35.73 789.648,21.873 C789.648,9.207 800.763,5.408 811.529,5.408 C817.58,5.408 823.278,6.041 826.586,7.588 L823.42,17.37" id="Fill-29" fill="#FFFFFE"></path>
                <polyline id="Fill-31" fill="#2586EB" points="368.611 80.33 371.661 80.33 371.661 89.244 381.857 89.244 381.857 80.33 384.907 80.33 384.907 101.635 381.857 101.635 381.857 91.929 371.661 91.929 371.661 101.635 368.611 101.635 368.611 80.33"></polyline>
                <path d="M400.179,83.537 C398.623,82.925 397.769,82.652 396.184,82.652 C394.474,82.652 392.459,83.26 392.459,85.489 C392.459,89.58 401.613,88.633 401.613,95.653 C401.613,100.202 398.103,102 393.833,102 C392.335,102 390.873,101.573 389.468,101.115 L389.771,98.278 C390.809,98.706 392.641,99.313 394.196,99.313 C395.937,99.313 398.379,98.337 398.379,95.836 C398.379,91.074 389.221,92.387 389.221,85.766 C389.221,81.98 392.213,79.966 396.059,79.966 C397.46,79.966 399.143,80.208 400.604,80.728 L400.179,83.537" id="Fill-33" fill="#2586EB"></path>
                <polyline id="Fill-34" fill="#2586EB" points="414.081 80.33 425.401 80.33 425.401 83.016 417.132 83.016 417.132 89.244 425.036 89.244 425.036 91.929 417.132 91.929 417.132 101.635 414.081 101.635 414.081 80.33"></polyline>
                <path d="M435.991,99.682 C439.349,99.682 440.845,96.631 440.845,93.852 C440.845,90.891 439.043,88.021 435.991,88.021 C432.909,88.021 431.107,90.891 431.107,93.852 C431.107,96.631 432.604,99.682 435.991,99.682 Z M435.991,85.703 C440.723,85.703 443.898,89.12 443.898,93.852 C443.898,98.308 440.659,102 435.991,102 C431.291,102 428.057,98.308 428.057,93.852 C428.057,89.12 431.229,85.703 435.991,85.703 L435.991,85.703 Z" id="Fill-35" fill="#2586EB"></path>
                <path d="M461.329,101.635 L458.553,101.635 L458.553,99.162 L458.49,99.162 C457.636,100.931 455.563,102 453.394,102 C449.366,102 447.566,99.498 447.566,95.318 L447.566,86.068 L450.435,86.068 L450.435,94.128 C450.435,97.758 451.227,99.527 453.729,99.682 C456.995,99.682 458.461,97.057 458.461,93.272 L458.461,86.068 L461.329,86.068 L461.329,101.635" id="Fill-36" fill="#2586EB"></path>
                <path d="M466.053,86.068 L468.828,86.068 L468.828,88.541 L468.892,88.541 C469.745,86.771 471.82,85.703 473.987,85.703 C478.017,85.703 479.814,88.206 479.814,92.387 L479.814,101.635 L476.947,101.635 L476.947,93.578 C476.947,89.945 476.154,88.176 473.652,88.021 C470.386,88.021 468.923,90.648 468.923,94.432 L468.923,101.635 L466.053,101.635 L466.053,86.068" id="Fill-37" fill="#2586EB"></path>
                <path d="M490.986,99.682 C494.219,99.682 495.563,96.475 495.563,93.881 C495.563,90.984 494.067,88.021 490.953,88.021 C487.842,88.021 486.619,90.952 486.682,93.789 C486.619,96.233 487.899,99.682 490.986,99.682 Z M495.685,99.438 L495.623,99.438 C494.86,100.597 493.09,102 490.312,102 C485.613,102 483.63,97.821 483.63,93.578 C483.63,89.396 485.827,85.703 490.344,85.703 C493.061,85.703 494.616,86.771 495.501,88.206 L495.563,88.206 L495.563,78.745 L498.432,78.745 L498.432,101.635 L495.685,101.635 L495.685,99.438 L495.685,99.438 Z" id="Fill-38" fill="#2586EB"></path>
                <path d="M512.37,94.217 C511.761,94.217 511.149,94.158 510.538,94.158 C508.982,94.158 505.138,94.401 505.138,97.146 C505.138,98.798 506.724,99.682 508.036,99.682 C510.876,99.682 512.37,97.91 512.37,95.592 L512.37,94.217 Z M503.856,87.167 C505.292,86.315 506.999,85.703 508.982,85.703 C513.438,85.703 515.24,87.9 515.24,92.142 L515.24,98.584 C515.24,100.352 515.299,101.179 515.364,101.635 L512.676,101.635 L512.676,99.619 L512.615,99.619 C511.942,100.566 510.417,102 507.792,102 C504.435,102 502.087,100.536 502.087,97.146 C502.087,93.241 506.358,92.02 509.321,92.02 C510.448,92.02 511.241,92.02 512.37,92.082 C512.37,89.396 511.394,88.021 508.525,88.021 C506.907,88.021 505.168,88.633 504.007,89.609 L503.856,87.167 L503.856,87.167 Z" id="Fill-39" fill="#2586EB"></path>
                <path d="M528.194,88.39 L524.072,88.39 L524.072,96.903 C524.072,98.706 525.171,99.682 526.483,99.682 C527.367,99.682 528.008,99.406 528.436,99.132 L528.436,101.573 C527.794,101.757 526.909,102 525.995,102 C523.032,102 521.204,100.597 521.204,97.485 L521.204,88.39 L517.695,88.39 L517.695,86.068 L521.204,86.068 L521.204,82.467 L524.072,81.554 L524.072,86.068 L528.194,86.068 L528.194,88.39" id="Fill-40" fill="#2586EB"></path>
                <path d="M531.681,101.635 L534.549,101.635 L534.549,86.068 L531.681,86.068 L531.681,101.635 Z M531.497,82.588 L534.732,82.588 L534.732,79.354 L531.497,79.354 L531.497,82.588 Z" id="Fill-41" fill="#2586EB"></path>
                <path d="M546.378,99.682 C549.735,99.682 551.229,96.631 551.229,93.852 C551.229,90.891 549.43,88.021 546.378,88.021 C543.294,88.021 541.495,90.891 541.495,93.852 C541.495,96.631 542.988,99.682 546.378,99.682 Z M546.378,85.703 C551.106,85.703 554.28,89.12 554.28,93.852 C554.28,98.308 551.048,102 546.378,102 C541.676,102 538.443,98.308 538.443,93.852 C538.443,89.12 541.616,85.703 546.378,85.703 L546.378,85.703 Z" id="Fill-42" fill="#2586EB"></path>
                <polyline id="Fill-30" fill="#2586EB" points="346.442 80.33 350.592 80.33 359.991 97.485 360.051 97.485 360.051 80.33 363.104 80.33 363.104 101.635 359.197 101.635 349.554 84.115 349.492 84.115 349.492 101.635 346.442 101.635 346.442 80.33"></polyline>
                <path d="M558.061,86.068 L560.839,86.068 L560.839,88.541 L560.897,88.541 C561.754,86.771 563.828,85.703 565.995,85.703 C570.023,85.703 571.825,88.206 571.825,92.387 L571.825,101.635 L568.957,101.635 L568.957,93.578 C568.957,89.945 568.162,88.176 565.659,88.021 C562.394,88.021 560.931,90.648 560.931,94.432 L560.931,101.635 L558.061,101.635 L558.061,86.068" id="Fill-44" fill="#2586EB"></path>
                <polyline id="Fill-45" fill="#2586EB" points="589.726 83.016 583.103 83.016 583.103 80.33 599.399 80.33 599.399 83.016 592.777 83.016 592.777 101.635 589.726 101.635 589.726 83.016"></polyline>
                <path d="M599.909,86.068 L602.594,86.068 L602.594,88.481 L602.655,88.481 C603.418,86.863 605.066,85.703 606.713,85.703 C607.567,85.703 607.995,85.795 608.606,85.917 L608.606,88.481 C608.087,88.267 607.509,88.206 607.019,88.206 C604.457,88.206 602.777,90.648 602.777,94.555 L602.777,101.635 L599.909,101.635 L599.909,86.068" id="Fill-46" fill="#2586EB"></path>
                <path d="M625.341,101.635 L622.563,101.635 L622.563,99.162 L622.501,99.162 C621.648,100.931 619.57,102 617.403,102 C613.376,102 611.576,99.498 611.576,95.318 L611.576,86.068 L614.444,86.068 L614.444,94.128 C614.444,97.758 615.237,99.527 617.742,99.682 C621.008,99.682 622.471,97.057 622.471,93.272 L622.471,86.068 L625.341,86.068 L625.341,101.635" id="Fill-48" fill="#2586EB"></path>
                <path d="M629.264,98.584 C630.394,99.313 632.009,99.682 632.835,99.682 C634.146,99.682 635.764,99.132 635.764,97.452 C635.764,94.615 629.02,94.857 629.02,90.494 C629.02,87.259 631.431,85.703 634.512,85.703 C635.855,85.703 636.954,85.976 638.083,86.315 L637.839,88.816 C637.198,88.419 635.488,88.021 634.817,88.021 C633.353,88.021 632.07,88.633 632.07,89.915 C632.07,93.089 638.815,92.175 638.815,97.146 C638.815,100.474 636.161,102 633.383,102 C631.92,102 630.424,101.848 629.111,101.145 L629.264,98.584" id="Fill-49" fill="#2586EB"></path>
                <path d="M650.958,88.39 L646.84,88.39 L646.84,96.903 C646.84,98.706 647.936,99.682 649.248,99.682 C650.133,99.682 650.774,99.406 651.201,99.132 L651.201,101.573 C650.561,101.757 649.676,102 648.761,102 C645.799,102 643.967,100.597 643.967,97.485 L643.967,88.39 L640.459,88.39 L640.459,86.068 L643.967,86.068 L643.967,82.467 L646.84,81.554 L646.84,86.068 L650.958,86.068 L650.958,88.39" id="Fill-50" fill="#2586EB"></path>
            </g>
        </g>
    </g>
</svg>